<?xml version="1.0" encoding="UTF-8" standalone="no"?>
<!DOCTYPE svg PUBLIC "-//W3C//DTD SVG 1.1//EN" "http://www.w3.org/Graphics/SVG/1.1/DTD/svg11.dtd">
<svg width="100%" height="100%" viewBox="0 0 4000 4000" version="1.1" xmlns="http://www.w3.org/2000/svg" xmlns:xlink="http://www.w3.org/1999/xlink" xml:space="preserve" xmlns:serif="http://www.serif.com/" style="fill-rule:evenodd;clip-rule:evenodd;stroke-linejoin:round;stroke-miterlimit:2;">
    <g id="horizontal" transform="matrix(7.96258,0,0,7.96258,-2299.79,-2299.79)">
        <path d="M397.302,682.698C364.778,679.156 339.386,665.732 321.125,642.425C299.592,614.942 288.825,581.083 288.825,540.85C288.825,540.566 288.826,540.283 288.827,540C288.826,539.717 288.825,539.434 288.825,539.15C288.825,498.917 299.592,465.058 321.125,437.575C339.386,414.268 364.778,400.844 397.302,397.302C400.844,364.778 414.268,339.386 437.575,321.125C465.058,299.592 498.917,288.825 539.15,288.825C539.434,288.825 539.717,288.826 540,288.827C540.283,288.826 540.566,288.825 540.85,288.825C581.083,288.825 614.942,299.592 642.425,321.125C665.732,339.386 679.156,364.778 682.698,397.302C715.222,400.844 740.614,414.268 758.875,437.575C780.408,465.058 791.175,498.917 791.175,539.15C791.175,539.434 791.174,539.717 791.173,540C791.174,540.283 791.175,540.566 791.175,540.85C791.175,581.083 780.408,614.942 758.875,642.425C740.614,665.732 715.222,679.156 682.698,682.698C679.156,715.222 665.732,740.614 642.425,758.875C614.942,780.408 581.083,791.175 540.85,791.175C540.566,791.175 540.283,791.174 540,791.173C539.717,791.174 539.434,791.175 539.15,791.175C498.917,791.175 465.058,780.408 437.575,758.875C414.268,740.614 400.844,715.222 397.302,682.698ZM613.349,405.367C610.129,394.373 603.529,385.134 593.55,377.65C579.011,366.746 561.161,361.222 540,361.078C518.843,361.222 501.134,366.746 486.875,377.65C477,385.202 470.499,394.54 467.372,405.665C474.749,408.74 481.675,412.577 488.15,417.175C507.519,430.93 524.803,449.83 540,473.875C555.197,449.83 572.481,430.93 591.85,417.175C598.536,412.427 605.702,408.491 613.349,405.367ZM674.335,612.628C685.46,609.501 694.798,603 702.35,593.125C713.254,578.866 718.778,561.157 718.922,540C718.778,518.839 713.254,500.989 702.35,486.45C694.866,476.471 685.627,469.871 674.633,466.651C671.509,474.298 667.573,481.464 662.825,488.15C649.07,507.519 630.17,524.803 606.125,540C630.17,555.197 649.07,572.481 662.825,591.85C667.423,598.325 671.26,605.251 674.335,612.628ZM467.372,674.335C470.499,685.46 477,694.798 486.875,702.35C501.134,713.254 518.843,718.778 540,718.922C561.161,718.778 579.011,713.254 593.55,702.35C603.529,694.866 610.129,685.627 613.349,674.633C605.702,671.509 598.536,667.573 591.85,662.825C572.3,648.942 555.158,629.817 540.425,605.45L539.575,605.45C524.842,629.817 507.7,648.942 488.15,662.825C481.675,667.423 474.749,671.26 467.372,674.335ZM405.367,466.651C394.373,469.871 385.134,476.471 377.65,486.45C366.746,500.989 361.222,518.839 361.078,540C361.222,561.157 366.746,578.866 377.65,593.125C385.202,603 394.54,609.501 405.665,612.628C408.74,605.251 412.577,598.325 417.175,591.85C431.058,572.3 450.183,555.158 474.55,540.425L474.55,539.575C450.183,524.842 431.058,507.7 417.175,488.15C412.427,481.464 408.491,474.298 405.367,466.651ZM540,510C523.443,510 510,523.443 510,540C510,556.557 523.443,570 540,570C556.557,570 570,556.557 570,540C570,523.443 556.557,510 540,510Z" style="fill:rgb(216,218,222);"/>
    </g>
</svg>
